<svg xmlns="http://www.w3.org/2000/svg" width="1600" height="1600" viewBox="0 0 800 800">
  <defs>
    <style>
      .cls-1 {
        fill: #351284;
        stroke: #351284;
      }

      .cls-1, .cls-2 {
        stroke-linecap: round;
        stroke-linejoin: round;
        stroke-width: 11px;
        fill-rule: evenodd;
      }

      .cls-2 {
        fill: #582fb3;
        stroke: #4c24a5;
      }

      .cls-3 {
        font-size: 72px;
        fill: #fff;
        font-family: Haettenschweiler;
      }
    </style>
  </defs>
  <path class="cls-1" d="M671.957,362.236L246.512,135.611q-18.051-9.6-42.734-9.611-24.707,0-42.735,9.611Q142.992,145.226,143,158.375v453.25q0,13.159,18.043,22.764T203.778,644q24.683,0,42.734-9.611L671.957,407.764Q689.986,398.16,690,385t-18.043-22.764h0Z"/>
  <path id="Layer_5" data-name="Layer 5" class="cls-1" d="M143.833,148.521L202.6,73.533l3.382,22.947s5.5,30.249,6.548,32.9,19.762,45.678,19.762,45.678l5.3,17.914,1.5,29.979s-29.832,10.334-39.061-3.351-12.88-52.793-12.88-52.793l-13.214-12.782-21.047-2.65"/>
  <path class="cls-1" d="M672,400l15-11,47-65H701l-27,21-26,15s-5,9.836-7,11-5,8.336-5,10-0.5-.164-10,6-29,13-29,13,9,1.836-9,11-25.5,14.336-39,20-26,10.836-28,12-2.5,2.336-15,7-5,1.336-14,6,1.5-.164-33,15-46.5,26.336-66,32-56,26.336-64,28-74.5,20.336-78,20,17,19.836-18,0-35-9.664-38-23-3.5-9.664-4-34,0.5-14.164,0-38,0-34,0-34"/>
  <path id="Shape_2_copy" data-name="Shape 2 copy" class="cls-2" d="M717.957,298.236L292.512,71.611q-18.051-9.6-42.734-9.611-24.707,0-42.735,9.611Q188.992,81.226,189,94.375v453.25q0,13.159,18.043,22.764T249.778,580q24.683,0,42.734-9.611L717.957,343.764Q735.986,334.16,736,321t-18.043-22.764h0Z"/>
  <text id="WVJL" class="cls-3" transform="matrix(0.379, -0.228, 0.228, 0.379, 171.834, 635.901)">WVJL</text>
</svg>
